<svg width="50.00000000000001" height="50.00000000000001" xmlns="http://www.w3.org/2000/svg" version="1.1" xml:space="preserve">
 <g class="layer">
  <title>Layer 1</title>
  <g stroke="null" id="svg_1">
   <path stroke="null" d="m50.0303,24.27986c0,13.40755 -10.9332,24.27986 -24.42938,24.27986c-4.28244,0 -8.30534,-1.10511 -11.79293,-3.02279l-13.52862,4.30667l4.41221,-13.03377c-2.22233,-3.65661 -3.50381,-7.94702 -3.50381,-12.52997c0,-13.40755 10.9332,-24.27986 24.41316,-24.27986c13.49618,0 24.42938,10.87231 24.42938,24.27986l0,0l0,0zm-24.42938,-20.41198c-11.32251,0 -20.53625,9.16589 -20.53625,20.41198c0,4.46918 1.45992,8.59708 3.90935,11.96116l-2.56298,7.58949l7.89981,-2.51899c3.24427,2.12896 7.12118,3.38033 11.29007,3.38033c11.32251,0 20.53625,-9.14964 20.53625,-20.41198c0,-11.24609 -9.21374,-20.41198 -20.53625,-20.41198l0,0zm12.32824,26.00253c-0.14599,-0.24377 -0.55153,-0.39004 -1.1355,-0.69882c-0.60019,-0.29253 -3.55248,-1.73892 -4.104,-1.93394c-0.55153,-0.19502 -0.94084,-0.29253 -1.34637,0.30878c-0.38931,0.58506 -1.54103,1.93394 -1.8979,2.32397c-0.34065,0.40629 -0.69752,0.45504 -1.28149,0.16252c-0.60019,-0.30878 -2.53053,-0.92634 -4.81775,-2.95779c-1.78435,-1.5764 -2.98473,-3.52659 -3.32538,-4.1279c-0.35687,-0.58506 -0.04866,-0.91009 0.25954,-1.20262c0.25954,-0.27628 0.60019,-0.69882 0.89218,-1.0401c0.30821,-0.35754 0.40553,-0.60131 0.60019,-0.99135c0.19466,-0.40629 0.09733,-0.74757 -0.04866,-1.05635c-0.14599,-0.29253 -1.34637,-3.21781 -1.84924,-4.40418c-0.50286,-1.20262 -0.9895,-0.99135 -1.34637,-0.99135c-0.34065,0 -0.74618,-0.04875 -1.15172,-0.04875s-1.03817,0.13001 -1.5897,0.73132s-2.09256,2.03145 -2.09256,4.97298c0,2.92528 2.14122,5.75306 2.44943,6.1431c0.29198,0.40629 4.13645,6.61439 10.21946,8.98712c6.08301,2.38898 6.08301,1.59266 7.18607,1.49514c1.10305,-0.11376 3.53626,-1.44639 4.03912,-2.82778c0.50286,-1.39764 0.50286,-2.60025 0.34065,-2.84403l0,0l0,0z" fill="#ffffff" id="svg_2"/>
  </g>
 </g>

</svg>